<svg width="797" height="832" viewBox="0 0 797 832" fill="none" xmlns="http://www.w3.org/2000/svg">
<g id="Loader_Animal_Shelter" clip-path="url(#clip0)">
<g id="Cat">
<path id="Vector" d="M604.681 400.899C618.584 402.322 632.531 399.087 645.947 395.103C672.548 387.205 700.15 374.658 713.939 350.159C718.976 341.212 721.835 331.194 724.649 321.285C730.331 301.283 736.051 281.049 736.965 260.246C737.945 237.358 733.079 214.603 722.842 194.209C721.34 191.128 718.793 188.706 715.674 187.393C710.243 185.216 707.258 188.189 704.886 191.288C690.503 210.082 691.992 236.245 690.791 260.051C689.581 283.914 684.995 307.473 677.176 329.999C673.856 339.555 669.479 349.502 661.049 354.88C655.885 358.175 649.74 359.382 643.753 360.528C634.8 362.243 625.026 363.841 617 359.45C608.78 354.953 603.344 343.301 593.859 341.364C584.475 339.448 571.669 349.47 567.479 357.914C556.133 380.784 586.067 398.994 604.681 400.899Z" fill="#C9BBBB"/>
<g id="Group" opacity="0.1">
<path id="Vector_2" opacity="0.1" d="M661.049 354.88C655.885 358.174 649.74 359.382 643.753 360.528C637.604 361.706 631.078 362.78 624.986 361.945C632.636 365.196 641.594 363.772 649.869 362.188C655.856 361.042 662.001 359.834 667.165 356.54C675.595 351.162 679.972 341.215 683.291 331.659C691.111 309.133 695.697 285.574 696.906 261.711C698.107 237.905 696.618 211.742 711.002 192.948C712.669 190.771 714.658 188.695 717.566 188.385C716.964 188 716.331 187.668 715.674 187.392C710.243 185.216 707.257 188.189 704.887 191.288C690.503 210.082 691.992 236.245 690.791 260.051C689.581 283.914 684.995 307.473 677.176 329.999C673.856 339.555 669.479 349.502 661.049 354.88Z" fill="black"/>
<path id="Vector_3" opacity="0.1" d="M573.595 359.574C577.467 351.769 588.696 342.638 597.785 342.81C596.549 342.144 595.228 341.658 593.859 341.365C584.475 339.448 571.669 349.47 567.48 357.914C556.896 379.246 582.225 396.517 600.785 400.291C583.348 394.443 564.141 378.631 573.595 359.574Z" fill="black"/>
</g>
<path id="Vector_4" opacity="0.1" d="M648.987 273.893L487.54 191.913L464.261 239.556L625.709 321.536L648.987 273.893Z" fill="black"/>
<path id="Vector_5" d="M648.987 273.893L487.54 191.913L466.378 235.225L627.825 317.205L648.987 273.893Z" fill="#6C63FF"/>
<path id="Vector_6" d="M590.885 248.195C606.614 248.195 619.364 235.197 619.364 219.163C619.364 203.129 606.614 190.13 590.885 190.13C575.157 190.13 562.407 203.129 562.407 219.163C562.407 235.197 575.157 248.195 590.885 248.195Z" fill="#6C63FF"/>
<path id="Vector_7" d="M569.251 67.7751C569.251 67.7751 618.56 81.4022 636.513 101.93C636.513 101.93 665.6 76.7615 679.053 83.5924C692.505 90.4233 672.42 142.984 672.42 142.984L654.62 225.233C654.62 225.233 663.877 423.918 538.475 462.939C413.073 501.959 323.22 342.225 352.257 282.798C381.293 223.372 468.503 113.609 468.503 113.609C468.503 113.609 544.546 26.703 557.981 22.1144C571.417 17.5258 569.251 67.7751 569.251 67.7751Z" fill="#C9BBBB"/>
<g id="Group_2" opacity="0.1">
<path id="Vector_8" opacity="0.1" d="M644.25 326.595C651.89 293.389 655.375 259.331 654.62 225.233L651.809 238.221C652.481 267.872 649.946 297.509 644.25 326.595Z" fill="#C9BBBB"/>
<path id="Vector_9" opacity="0.1" d="M366.307 274.565C395.343 215.138 465.693 126.597 465.693 126.597C465.693 126.597 541.735 39.691 555.171 35.1025C568.606 30.5137 566.44 80.7631 566.44 80.7631C566.44 80.7631 615.749 94.3902 633.702 114.918C633.702 114.918 662.79 89.7498 676.241 96.5804C681.463 99.2319 681.623 108.778 679.875 119.46C683.767 104.513 686.362 87.3042 679.052 83.5923C665.6 76.7617 636.513 101.93 636.513 101.93C618.56 81.4021 569.251 67.775 569.251 67.775C569.251 67.775 571.417 17.5256 557.981 22.1144C544.546 26.7029 468.504 113.609 468.504 113.609C468.504 113.609 398.154 202.15 369.118 261.576C366.495 266.945 365.474 276.269 366.307 274.565Z" fill="#C9BBBB"/>
</g>
<path id="Vector_10" d="M617.604 202.387C623.138 202.387 627.624 197.814 627.624 192.173C627.624 186.532 623.138 181.959 617.604 181.959C612.071 181.959 607.585 186.532 607.585 192.173C607.585 197.814 612.071 202.387 617.604 202.387Z" fill="#58555D"/>
<path id="Vector_11" d="M514.47 150.017C520.003 150.017 524.489 145.444 524.489 139.803C524.489 134.162 520.003 129.589 514.47 129.589C508.936 129.589 504.451 134.162 504.451 139.803C504.451 145.444 508.936 150.017 514.47 150.017Z" fill="#58555D"/>
<path id="Vector_12" d="M577.264 183.1C579.732 178.051 575.709 170.899 568.279 167.127C560.85 163.354 552.827 164.389 550.36 169.438C547.893 174.488 551.915 181.639 559.345 185.412C566.774 189.184 574.797 188.149 577.264 183.1Z" fill="#58555D"/>
<path id="Vector_13" d="M645.115 203.351L643.906 208.309L688.727 219.669L689.936 214.711L645.115 203.351Z" fill="#C9BBBB"/>
<path id="Vector_14" d="M636.237 221.637L634.923 226.564L684.221 240.23L685.535 235.303L636.237 221.637Z" fill="#C9BBBB"/>
<path id="Vector_15" d="M451.276 76.5402L447.539 79.9362L483.446 120.991L487.183 117.595L451.276 76.5402Z" fill="#C9BBBB"/>
<path id="Vector_16" d="M426.232 92.1778L423.343 96.3495L477.169 135.093L480.058 130.921L426.232 92.1778Z" fill="#C9BBBB"/>
<path id="Vector_17" opacity="0.1" d="M478.31 303.076C478.31 303.076 475.716 388.032 431.902 373.134C388.089 358.236 437.93 303.944 437.93 303.944C437.93 303.944 443.089 282.925 433.64 276.792" fill="black"/>
<path id="Vector_18" opacity="0.1" d="M516.805 320.531C516.805 320.531 447.471 367.738 483.058 397.749C518.646 427.761 537.454 355.917 537.454 355.917C537.454 355.917 552.218 340.33 562.323 345.258" fill="black"/>
<path id="Vector_19" d="M475.583 299.283C475.583 299.283 472.989 384.239 429.176 369.341C385.363 354.443 435.204 300.151 435.204 300.151C435.204 300.151 440.363 279.132 430.913 272.999" fill="#C9BBBB"/>
<path id="Vector_20" d="M521.058 319.07C521.058 319.07 451.723 366.277 487.311 396.288C522.899 426.3 541.707 354.456 541.707 354.456C541.707 354.456 556.47 338.869 566.576 343.797" fill="#C9BBBB"/>
<path id="Vector_21" opacity="0.5" d="M423.031 348.359L416.441 361.846L417.149 362.205L423.739 348.718L423.031 348.359Z" fill="#58555D"/>
<path id="Vector_22" opacity="0.5" d="M434.361 354.112L427.771 367.599L428.479 367.958L435.069 354.471L434.361 354.112Z" fill="#58555D"/>
<path id="Vector_23" opacity="0.5" d="M430.314 346.686L421.09 365.565L421.798 365.924L431.022 347.046L430.314 346.686Z" fill="#58555D"/>
<path id="Vector_24" opacity="0.5" d="M498.084 382.866L491.495 396.353L492.203 396.712L498.792 383.225L498.084 382.866Z" fill="#58555D"/>
<path id="Vector_25" opacity="0.5" d="M509.414 388.619L502.824 402.106L503.532 402.465L510.122 388.978L509.414 388.619Z" fill="#58555D"/>
<path id="Vector_26" opacity="0.5" d="M505.368 381.194L496.143 400.072L496.852 400.432L506.076 381.553L505.368 381.194Z" fill="#58555D"/>
<path id="Vector_27" opacity="0.1" d="M524.065 229.079C512.321 223.124 501.099 216.152 490.524 208.241C457.202 183.267 439.263 154.033 438.622 152.962L443.789 146.369C443.939 146.619 463.944 177.381 496.01 201.322C525.526 223.357 581.88 249.856 653.829 246.778L654.195 255.657C601.974 257.891 554.647 244.607 524.065 229.079Z" fill="black"/>
<path id="Vector_28" d="M523.286 234.757L523.132 234.289C523.928 234.137 524.678 233.799 525.324 233.303C525.97 232.806 526.495 232.164 526.858 231.427C527.22 230.689 527.411 229.876 527.414 229.051C527.417 228.227 527.233 227.412 526.876 226.672L527.316 226.464C527.701 227.268 527.901 228.15 527.899 229.045C527.896 229.939 527.693 230.821 527.303 231.622C526.914 232.423 526.349 233.123 525.653 233.666C524.956 234.21 524.147 234.583 523.286 234.757Z" fill="#4D8AF0"/>
<path id="Vector_29" opacity="0.1" d="M523.286 234.757L523.132 234.289C523.928 234.137 524.678 233.799 525.324 233.303C525.97 232.806 526.495 232.164 526.858 231.427C527.22 230.689 527.411 229.876 527.414 229.051C527.417 228.227 527.233 227.412 526.876 226.672L527.316 226.464C527.701 227.268 527.901 228.15 527.899 229.045C527.896 229.939 527.693 230.821 527.303 231.622C526.914 232.423 526.349 233.123 525.653 233.666C524.956 234.21 524.147 234.583 523.286 234.757Z" fill="black"/>
<path id="Vector_30" d="M654.693 245.011C582.743 248.088 526.389 221.59 496.874 199.554C464.808 175.613 444.802 144.851 444.653 144.601L437.211 149.231C437.853 150.302 458.065 181.5 491.388 206.473C501.962 214.385 513.184 221.356 524.929 227.311C555.51 242.84 602.838 256.123 655.058 253.89L654.693 245.011ZM526.664 227.452C526.493 227.365 526.35 227.228 526.255 227.059C526.16 226.889 526.116 226.695 526.13 226.5C526.143 226.305 526.213 226.119 526.33 225.964C526.447 225.81 526.607 225.694 526.788 225.632C526.97 225.57 527.165 225.564 527.35 225.616C527.535 225.667 527.701 225.773 527.827 225.92C527.952 226.068 528.032 226.25 528.057 226.443C528.081 226.637 528.048 226.834 527.963 227.009C527.906 227.125 527.828 227.228 527.732 227.313C527.636 227.398 527.524 227.463 527.404 227.505C527.283 227.546 527.155 227.562 527.029 227.553C526.902 227.544 526.778 227.51 526.664 227.452Z" fill="#F55F44"/>
<path id="Vector_31" opacity="0.1" d="M511.948 235.423C510.803 237.767 510.618 240.479 511.434 242.962C512.25 245.445 514 247.496 516.3 248.664C518.599 249.831 521.259 250.02 523.695 249.188C526.131 248.356 528.143 246.572 529.288 244.228C530.433 241.884 530.618 239.172 529.802 236.689C528.986 234.206 527.236 232.155 524.937 230.987C522.637 229.82 519.977 229.631 517.541 230.463C515.106 231.295 513.094 233.079 511.948 235.423ZM522.777 235.406C522.492 235.261 522.254 235.033 522.096 234.751C521.937 234.468 521.865 234.144 521.887 233.819C521.909 233.495 522.025 233.184 522.22 232.926C522.416 232.669 522.682 232.476 522.984 232.373C523.287 232.27 523.613 232.26 523.921 232.346C524.229 232.431 524.506 232.608 524.715 232.853C524.925 233.099 525.058 233.402 525.098 233.725C525.139 234.048 525.084 234.376 524.942 234.667C524.751 235.058 524.416 235.355 524.01 235.494C523.604 235.633 523.161 235.601 522.777 235.407L522.777 235.406Z" fill="url(#paint0_linear)"/>
<path id="Vector_32" d="M512.816 235.864C511.785 237.973 511.618 240.414 512.353 242.649C513.087 244.883 514.662 246.729 516.732 247.78C518.801 248.831 521.195 249.001 523.387 248.252C525.58 247.503 527.39 245.897 528.421 243.788C529.452 241.678 529.618 239.237 528.884 237.003C528.149 234.768 526.574 232.922 524.505 231.871C522.435 230.82 520.041 230.651 517.849 231.399C515.657 232.148 513.846 233.754 512.816 235.864ZM522.562 235.848C522.304 235.718 522.091 235.512 521.948 235.258C521.805 235.004 521.74 234.712 521.76 234.42C521.78 234.128 521.884 233.848 522.06 233.616C522.236 233.385 522.475 233.211 522.748 233.118C523.02 233.025 523.314 233.017 523.591 233.094C523.868 233.171 524.117 233.33 524.305 233.551C524.494 233.772 524.614 234.045 524.65 234.335C524.687 234.626 524.638 234.921 524.51 235.183C524.425 235.357 524.307 235.512 524.163 235.64C524.019 235.768 523.852 235.865 523.671 235.927C523.49 235.989 523.299 236.014 523.109 236C522.918 235.987 522.732 235.935 522.562 235.848Z" fill="#4D8AF0"/>
<path id="Vector_33" d="M522.98 234.601C522.598 233.796 522.402 232.913 522.408 232.018C522.414 231.124 522.621 230.243 523.014 229.444C523.407 228.644 523.975 227.947 524.674 227.407C525.372 226.867 526.184 226.497 527.045 226.327L527.147 226.809C526.353 226.965 525.604 227.306 524.96 227.806C524.316 228.305 523.794 228.95 523.435 229.689C523.076 230.428 522.89 231.242 522.89 232.067C522.891 232.892 523.079 233.706 523.439 234.444L522.98 234.601Z" fill="#4D8AF0"/>
<path id="Vector_34" d="M641.906 241.846C487.573 252.83 451.181 151.617 451.181 151.617L641.906 241.846Z" fill="#C9BBBB"/>
</g>
<g id="Dog">
<path id="Polygon 6" d="M169.016 76.7931L140.186 80.4327L164.83 48.0375L169.016 76.7931Z" fill="#B37C2A"/>
<path id="Polygon 5" d="M46.4583 135.347L27.4374 112.425L68.0684 114.847L46.4583 135.347Z" fill="#B27C2A"/>
<g id="Group_3" opacity="0.1">
<path id="Vector_35" opacity="0.1" d="M45.582 357.842C50.7459 361.136 56.891 362.344 62.8777 363.49C69.0276 364.668 75.5536 365.742 81.6455 364.907C73.9956 368.158 65.0369 366.734 56.7621 365.15C50.7754 364.004 44.6303 362.796 39.4664 359.502C31.0361 354.124 26.6594 344.177 23.3399 334.621C15.5202 312.095 10.9346 288.536 9.72504 264.673C8.52376 240.867 10.0127 214.704 -4.37122 195.91C-6.03745 193.733 -8.02657 191.657 -10.9346 191.347C-10.3329 190.962 -9.70013 190.63 -9.04312 190.355C-3.61169 188.178 -0.626228 191.151 1.74437 194.25C16.1283 213.044 14.6394 239.207 15.8406 263.013C17.0502 286.876 21.6359 310.435 29.4554 332.961C32.775 342.517 37.1517 352.464 45.582 357.842Z" fill="black"/>
<path id="Vector_36" opacity="0.1" d="M133.036 362.536C129.164 354.731 117.935 345.6 108.846 345.772C110.082 345.106 111.404 344.62 112.772 344.327C122.156 342.41 134.962 352.432 139.151 360.876C149.735 382.208 124.406 399.479 105.846 403.253C123.283 397.405 142.49 381.593 133.036 362.536Z" fill="black"/>
</g>
<path id="Vector_37" opacity="0.1" d="M57.6438 276.855L219.091 194.875L242.37 242.518L80.9225 324.498L57.6438 276.855Z" fill="black"/>
<path id="Vector_38" d="M57.6438 276.855L219.091 194.875L240.253 238.187L78.8063 320.167L57.6438 276.855Z" fill="#6C63FF"/>
<path id="Vector_39" d="M115.746 251.157C100.017 251.157 87.2668 238.159 87.2668 222.125C87.2668 206.091 100.017 193.092 115.746 193.092C131.474 193.092 144.225 206.091 144.225 222.125C144.225 238.159 131.474 251.157 115.746 251.157Z" fill="#6C63FF"/>
<path id="Vector_40" d="M137.38 70.7373C137.38 70.7373 88.0716 84.3644 70.1182 104.892C70.1182 104.892 66.4436 108.79 52.9912 115.621C39.5389 122.452 34.2112 145.947 34.2112 145.947L52.0116 228.195C52.0116 228.195 42.7542 426.88 168.156 465.901C293.558 504.922 383.411 345.187 354.375 285.761C325.338 226.334 238.128 116.571 238.128 116.571C238.128 116.571 181.592 75.3259 168.156 70.7373C154.721 66.1487 137.38 70.7373 137.38 70.7373Z" fill="#FFD180"/>
<g id="Group_4" opacity="0.1">
<path id="Vector_41" opacity="0.1" d="M62.3816 329.557C54.741 296.351 51.2565 262.293 52.0113 228.195L54.8222 241.183C54.1504 270.835 56.6855 300.471 62.3816 329.557Z" fill="white"/>
<path id="Vector_42" opacity="0.1" d="M340.324 277.527C311.288 218.1 240.938 129.56 240.938 129.56C240.938 129.56 164.896 42.6532 151.461 38.0647C138.025 33.4759 140.191 83.7253 140.191 83.7253C140.191 83.7253 90.8825 97.3524 72.929 117.88C72.929 117.88 43.8416 92.712 30.3897 99.5427C25.1681 102.194 25.0078 111.74 26.7561 122.423C22.8646 107.476 20.2689 90.2664 27.5788 86.5546C41.0307 79.7239 70.1181 104.892 70.1181 104.892C88.0716 84.3643 137.38 70.7372 137.38 70.7372C137.38 70.7372 135.214 20.4878 148.65 25.0766C162.085 29.6651 238.127 116.572 238.127 116.572C238.127 116.572 308.477 205.112 337.513 264.539C340.136 269.907 341.157 279.231 340.324 277.527Z" fill="white"/>
</g>
<path id="Vector_43" d="M89.0268 205.349C83.4934 205.349 79.0077 200.776 79.0077 195.135C79.0077 189.494 83.4934 184.921 89.0268 184.921C94.5603 184.921 99.046 189.494 99.046 195.135C99.046 200.776 94.5603 205.349 89.0268 205.349Z" fill="#58555D"/>
<path id="Vector_44" d="M192.161 152.979C186.628 152.979 182.142 148.406 182.142 142.765C182.142 137.124 186.628 132.551 192.161 132.551C197.695 132.551 202.181 137.124 202.181 142.765C202.181 148.406 197.695 152.979 192.161 152.979Z" fill="#58555D"/>
<path id="Vector_45" d="M129.367 186.062C126.9 181.013 130.922 173.861 138.352 170.089C145.782 166.316 153.804 167.351 156.271 172.4C158.739 177.45 154.716 184.601 147.286 188.374C139.857 192.146 131.834 191.111 129.367 186.062Z" fill="#58555D"/>
<path id="Vector_46" opacity="0.1" d="M228.321 306.039C228.321 306.039 230.916 390.994 274.729 376.096C318.542 361.198 268.701 306.906 268.701 306.906C268.701 306.906 263.542 285.887 272.991 279.754" fill="black"/>
<path id="Vector_47" opacity="0.1" d="M189.826 323.493C189.826 323.493 259.16 370.7 223.573 400.712C187.985 430.723 169.177 358.879 169.177 358.879C169.177 358.879 154.413 343.293 144.308 348.22" fill="black"/>
<path id="Vector_48" d="M231.048 302.246C231.048 302.246 233.642 387.201 277.455 372.303C321.268 357.405 271.428 303.113 271.428 303.113C271.428 303.113 266.269 282.094 275.718 275.961" fill="#FFD180"/>
<path id="Vector_49" d="M185.573 322.032C185.573 322.032 254.908 369.239 219.32 399.251C183.732 429.262 164.924 357.418 164.924 357.418C164.924 357.418 150.161 341.832 140.055 346.759" fill="#FFD180"/>
<path id="Vector_50" opacity="0.5" d="M283.6 351.321L290.19 364.808L289.482 365.168L282.892 351.681L283.6 351.321Z" fill="#58555D"/>
<path id="Vector_51" opacity="0.5" d="M272.271 357.074L278.86 370.561L278.152 370.921L271.562 357.434L272.271 357.074Z" fill="#58555D"/>
<path id="Vector_52" opacity="0.5" d="M276.317 349.649L285.541 368.527L284.833 368.887L275.609 350.008L276.317 349.649Z" fill="#58555D"/>
<path id="Vector_53" opacity="0.5" d="M208.547 385.828L215.137 399.315L214.429 399.675L207.839 386.188L208.547 385.828Z" fill="#58555D"/>
<path id="Vector_54" opacity="0.5" d="M197.217 391.581L203.807 405.068L203.099 405.428L196.509 391.941L197.217 391.581Z" fill="#58555D"/>
<path id="Vector_55" opacity="0.5" d="M201.264 384.156L210.488 403.034L209.78 403.394L200.555 384.515L201.264 384.156Z" fill="#58555D"/>
<path id="Vector_56" opacity="0.1" d="M182.566 232.041C194.311 226.086 205.532 219.114 216.107 211.202C249.43 186.229 267.368 156.995 268.009 155.924L262.842 149.331C262.692 149.581 242.687 180.343 210.621 204.284C181.105 226.319 124.752 252.818 52.8016 249.74L52.4365 258.619C104.657 260.853 151.985 247.569 182.566 232.041Z" fill="black"/>
<path id="Vector_57" d="M183.345 237.719L183.499 237.251C182.703 237.099 181.953 236.761 181.307 236.265C180.661 235.768 180.136 235.126 179.773 234.389C179.411 233.651 179.221 232.838 179.217 232.013C179.214 231.189 179.398 230.374 179.755 229.634L179.315 229.426C178.93 230.23 178.731 231.112 178.733 232.007C178.735 232.901 178.938 233.783 179.328 234.584C179.717 235.385 180.282 236.085 180.978 236.628C181.675 237.172 182.485 237.545 183.345 237.719Z" fill="#4D8AF0"/>
<path id="Vector_58" opacity="0.1" d="M183.345 237.719L183.499 237.251C182.703 237.099 181.953 236.761 181.307 236.265C180.661 235.768 180.136 235.126 179.773 234.389C179.411 233.651 179.221 232.838 179.217 232.013C179.214 231.189 179.398 230.374 179.755 229.634L179.315 229.426C178.93 230.23 178.731 231.112 178.733 232.007C178.735 232.901 178.938 233.783 179.328 234.584C179.717 235.385 180.282 236.085 180.978 236.628C181.675 237.172 182.485 237.545 183.345 237.719Z" fill="black"/>
<path id="Vector_59" d="M51.938 247.973C123.888 251.05 180.242 224.552 209.758 202.516C241.823 178.575 261.829 147.813 261.979 147.563L269.42 152.193C268.779 153.264 248.566 184.462 215.244 209.435C204.669 217.347 193.447 224.318 181.702 230.273C151.121 245.802 103.793 259.085 51.5728 256.852L51.938 247.973ZM179.967 230.414C180.139 230.327 180.281 230.19 180.376 230.021C180.471 229.851 180.515 229.657 180.502 229.462C180.488 229.267 180.419 229.081 180.301 228.926C180.184 228.772 180.025 228.656 179.843 228.594C179.661 228.532 179.466 228.526 179.281 228.578C179.096 228.629 178.93 228.735 178.805 228.882C178.679 229.03 178.599 229.212 178.574 229.405C178.55 229.599 178.583 229.796 178.668 229.971C178.725 230.087 178.804 230.19 178.9 230.275C178.996 230.36 179.107 230.425 179.228 230.467C179.348 230.508 179.476 230.524 179.603 230.515C179.729 230.506 179.853 230.472 179.967 230.414Z" fill="#F55F44"/>
<path id="Vector_60" opacity="0.1" d="M194.683 238.385C195.828 240.729 196.013 243.441 195.197 245.924C194.381 248.407 192.631 250.458 190.331 251.626C188.032 252.793 185.372 252.982 182.936 252.15C180.5 251.318 178.489 249.534 177.343 247.19C176.198 244.846 176.013 242.134 176.829 239.651C177.645 237.168 179.395 235.117 181.695 233.949C183.994 232.782 186.654 232.593 189.09 233.425C191.526 234.257 193.537 236.041 194.683 238.385ZM183.854 238.368C184.14 238.223 184.377 237.995 184.535 237.713C184.694 237.43 184.767 237.106 184.744 236.781C184.722 236.457 184.606 236.146 184.411 235.888C184.215 235.631 183.95 235.438 183.647 235.335C183.344 235.232 183.018 235.222 182.71 235.308C182.402 235.393 182.126 235.57 181.916 235.815C181.707 236.061 181.573 236.364 181.533 236.687C181.492 237.01 181.547 237.338 181.689 237.629C181.88 238.02 182.215 238.317 182.621 238.456C183.027 238.595 183.47 238.563 183.854 238.369L183.854 238.368Z" fill="url(#paint1_linear)"/>
<path id="Vector_61" d="M193.816 238.825C194.846 240.935 195.013 243.376 194.279 245.611C193.544 247.845 191.969 249.691 189.9 250.742C187.83 251.793 185.436 251.963 183.244 251.214C181.052 250.465 179.241 248.859 178.21 246.75C177.179 244.64 177.013 242.199 177.747 239.965C178.482 237.73 180.057 235.884 182.126 234.833C184.196 233.782 186.59 233.613 188.782 234.361C190.974 235.11 192.785 236.716 193.816 238.825ZM184.07 238.81C184.327 238.68 184.54 238.474 184.683 238.22C184.826 237.966 184.891 237.674 184.871 237.382C184.851 237.09 184.747 236.81 184.571 236.578C184.395 236.347 184.156 236.173 183.883 236.08C183.611 235.987 183.317 235.979 183.04 236.056C182.763 236.133 182.514 236.292 182.326 236.513C182.137 236.734 182.017 237.007 181.981 237.297C181.944 237.588 181.993 237.883 182.121 238.145C182.206 238.319 182.324 238.474 182.468 238.602C182.612 238.73 182.779 238.827 182.96 238.889C183.141 238.951 183.332 238.976 183.523 238.962C183.713 238.949 183.899 238.897 184.07 238.81Z" fill="#4D8AF0"/>
<path id="Vector_62" d="M183.651 237.563C184.034 236.758 184.229 235.875 184.223 234.98C184.217 234.086 184.01 233.205 183.617 232.406C183.224 231.606 182.657 230.909 181.958 230.369C181.259 229.828 180.448 229.459 179.586 229.289L179.484 229.771C180.279 229.927 181.027 230.268 181.671 230.768C182.315 231.267 182.837 231.912 183.196 232.651C183.555 233.39 183.741 234.204 183.741 235.029C183.74 235.854 183.552 236.668 183.192 237.406L183.651 237.563Z" fill="#4D8AF0"/>
<path id="Vector_63" d="M64.7253 244.808C219.058 255.792 255.45 154.579 255.45 154.579L64.7253 244.808Z" fill="#FFD180"/>
<path id="Polygon 3" d="M61.6961 117.801C73.9475 118.005 83.106 129.118 80.9998 141.223L72.787 188.425C69.8726 205.175 48.786 210.939 37.8469 197.976L32.6802 191.853C29.8284 188.474 28.1773 184.239 27.9855 179.812L27.5061 168.744C27.4118 166.566 26.9633 164.419 26.1784 162.388L12.8283 127.837C12.5837 127.204 12.3859 126.554 12.2366 125.891L12.0001 124.842C8.9018 111.096 26.1845 102.276 35.4195 112.891C37.9328 115.78 41.5508 117.464 45.3779 117.528L61.6961 117.801Z" fill="#D18D28"/>
<path id="Polygon 4" d="M152.532 72.4174C146.238 82.9305 150.841 96.5754 162.234 101.177L206.658 119.121C222.423 125.488 238.45 110.622 233.215 94.4882L230.742 86.8677C229.378 82.6615 226.653 79.0237 222.995 76.524L213.848 70.2738C212.048 69.044 210.461 67.5297 209.15 65.7906L186.854 36.2126C186.446 35.6706 185.998 35.1593 185.514 34.6828L184.747 33.928C174.708 24.0396 158.094 34.0618 162.234 47.5087C163.361 51.1683 162.882 55.1305 160.915 58.4146L152.532 72.4174Z" fill="#D18D28"/>
</g>
<g id="Pot">
<path id="Vector_64" d="M353.5 598C423.916 598 481 589.27 481 578.5C481 567.73 423.916 559 353.5 559C283.084 559 226 567.73 226 578.5C226 589.27 283.084 598 353.5 598Z" fill="#0292C9"/>
<path id="Vector_65" d="M246.052 578.018H226V752.315C226 752.315 355.426 795.421 481.206 752.315V578.018H246.052Z" fill="#0292C9"/>
</g>
<path id="Leaf4" d="M498.319 369.589C466.26 490.263 356.453 565 356.453 565C356.453 565 298.623 444.085 330.681 323.411C362.74 202.737 472.547 128 472.547 128C472.547 128 530.377 248.915 498.319 369.589Z" fill="#59BA2B"/>
<path id="Leaf3" d="M206.681 369.589C238.74 490.263 348.547 565 348.547 565C348.547 565 406.377 444.085 374.319 323.411C342.26 202.737 232.453 128 232.453 128C232.453 128 174.623 248.915 206.681 369.589Z" fill="#3A980D"/>
<path id="Leaf2" d="M254.461 343.599C342.274 430.86 353 565 353 565C353 565 221.352 557.662 133.539 470.401C45.7258 383.14 35 249 35 249C35 249 166.648 256.338 254.461 343.599Z" fill="#298000"/>
<path id="Leaf1" d="M451.539 343.599C363.726 430.86 353 565 353 565C353 565 484.648 557.662 572.461 470.401C660.274 383.14 671 249 671 249C671 249 539.352 256.338 451.539 343.599Z" fill="#3A980D"/>
<path id="Flower" d="M352.5 169C374.868 169 393 150.644 393 128C393 105.356 374.868 87 352.5 87C330.132 87 312 105.356 312 128C312 150.644 330.132 169 352.5 169Z" fill="#3A980D"/>
<g id="Worsted">
<g id="Group_5" opacity="0.5">
<path id="Vector_66" opacity="0.5" d="M705.92 837.459C756.203 837.459 796.966 795.905 796.966 744.644C796.966 693.383 756.203 651.828 705.92 651.828C655.637 651.828 614.874 693.383 614.874 744.644C614.874 795.905 655.637 837.459 705.92 837.459Z" fill="url(#paint2_linear)"/>
</g>
<path id="Vector_67" d="M705.92 831.535C752.993 831.535 791.154 792.633 791.154 744.644C791.154 696.655 752.993 657.753 705.92 657.753C658.846 657.753 620.686 696.655 620.686 744.644C620.686 792.633 658.846 831.535 705.92 831.535Z" fill="#F55F44"/>
<g id="Group_6" opacity="0.5">
<path id="Vector_68" opacity="0.5" d="M458.617 803.943C445.746 805.102 431.594 798.584 428.815 785.58C427.211 778.069 429.75 770.725 432.206 763.624C434.898 755.841 437.223 749.119 433.863 743.584C432.333 741.063 429.659 739.152 426.998 737.463C423.531 735.264 419.809 733.232 416.211 731.268C409.992 727.872 403.562 724.362 397.846 719.706C386.612 710.556 380.931 698.35 382.648 687.055C384.132 677.296 390.606 669.82 396.866 662.589C403.285 655.174 409.349 648.17 409.207 639.597C409.015 627.937 397.324 619.564 387.01 612.178L385.4 611.023C372.814 601.973 360.724 586.266 368.074 571.786C370.64 566.732 374.922 563.487 379.063 560.35C381.853 558.427 384.399 556.159 386.64 553.597C394.208 544.042 390.346 529.889 388.334 524.247C386.805 519.959 384.805 515.68 382.872 511.542C380.016 505.43 377.062 499.11 375.347 492.291L375.065 491.173C370.932 474.761 370.936 474.148 375.305 458.401L375.85 456.436L382.375 458.312L381.829 460.283C377.875 474.535 377.875 474.535 381.632 489.454L381.914 490.574C383.466 496.743 386.151 502.487 388.993 508.569C390.995 512.854 393.066 517.286 394.707 521.886C399.789 536.14 398.772 549.282 391.915 557.939C389.323 560.963 386.363 563.637 383.107 565.897C379.422 568.689 375.942 571.326 374.096 574.963C368.379 586.224 380.968 599.378 389.308 605.375L390.907 606.522C401.969 614.444 415.736 624.303 415.986 639.48C416.172 650.733 408.941 659.085 401.948 667.162C396.076 673.946 390.529 680.354 389.348 688.115C387.77 698.495 394.889 708.45 402.078 714.307C407.309 718.568 413.188 721.777 419.412 725.174C423.106 727.191 426.926 729.277 430.581 731.596C433.942 733.729 437.364 736.217 439.628 739.947C444.696 748.296 441.597 757.257 438.601 765.922C436.361 772.399 434.245 778.516 435.44 784.109C437.599 794.216 450.604 798.815 460.923 796.623C469.367 794.829 476.798 790.101 484.666 785.096C487.211 783.477 489.842 781.803 492.492 780.25C506.956 771.781 520.061 769.712 530.394 774.264C533.648 775.826 536.727 777.742 539.578 779.977C541.799 781.699 544.155 783.23 546.623 784.556C552.24 787.054 558.574 787.304 564.362 785.254C570.151 783.205 574.97 779.007 577.858 773.497C578.356 772.442 578.803 771.308 579.277 770.109C580.782 766.3 582.488 761.983 586.383 759.275C590.462 756.44 595.486 756.482 599.156 756.514L637.062 756.841L637.004 763.752L599.099 763.425C595.502 763.394 592.353 763.491 590.203 764.985C588.008 766.511 586.822 769.513 585.566 772.692C585.073 773.94 584.562 775.232 583.97 776.49C580.299 783.659 574.082 789.13 566.587 791.783C559.093 794.437 550.888 794.073 543.648 790.766C540.839 789.276 538.158 787.548 535.633 785.599C533.169 783.656 530.511 781.983 527.703 780.608C517.229 775.991 504.61 781.125 495.87 786.244C493.327 787.733 490.749 789.374 488.256 790.959C480.23 796.065 471.932 801.344 462.305 803.389C461.088 803.647 459.856 803.832 458.617 803.943Z" fill="url(#paint3_linear)"/>
</g>
<path id="Vector_69" d="M460.29 800.818C447.42 801.978 433.267 795.46 430.489 782.456C428.884 774.944 431.424 767.601 433.88 760.5C436.571 752.717 438.897 745.994 435.536 740.459C434.007 737.939 431.333 736.027 428.672 734.339C425.204 732.139 421.483 730.107 417.885 728.143C411.666 724.748 405.235 721.237 399.52 716.582C388.286 707.431 382.605 695.225 384.322 683.931C385.806 674.171 392.279 666.695 398.539 659.464C404.959 652.049 411.023 645.045 410.881 636.472C410.689 624.812 398.998 616.44 388.683 609.053L387.074 607.898C374.488 598.848 362.398 583.141 369.748 568.662C372.314 563.607 376.596 560.363 380.737 557.225C383.527 555.303 386.072 553.034 388.314 550.472C395.882 540.917 392.02 526.764 390.008 521.123C388.479 516.835 386.479 512.555 384.545 508.418C381.689 502.305 378.736 495.985 377.021 489.167L376.739 488.048C372.606 471.637 372.61 471.024 376.979 455.277L377.523 453.312L384.049 455.187L383.503 457.158C379.549 471.411 379.549 471.411 383.306 486.33L383.588 487.45C385.14 493.618 387.824 499.363 390.667 505.444C392.669 509.73 394.74 514.161 396.38 518.762C401.463 533.016 400.446 546.157 393.589 554.814C390.997 557.838 388.037 560.513 384.781 562.773C381.096 565.564 377.616 568.202 375.77 571.838C370.053 583.099 382.642 596.253 390.982 602.25L392.581 603.398C403.643 611.32 417.41 621.179 417.66 636.355C417.846 647.609 410.615 655.961 403.622 664.037C397.75 670.822 392.202 677.229 391.022 684.99C389.444 695.37 396.563 705.326 403.752 711.182C408.983 715.443 414.862 718.652 421.086 722.05C424.78 724.066 428.6 726.152 432.255 728.471C435.616 730.604 439.038 733.093 441.302 736.823C446.37 745.171 443.271 754.132 440.274 762.798C438.035 769.274 435.919 775.391 437.114 780.984C439.273 791.091 452.278 795.69 462.596 793.499C471.041 791.704 478.472 786.976 486.34 781.972C488.885 780.352 491.516 778.679 494.166 777.126C508.63 768.657 521.735 766.588 532.068 771.139C535.322 772.702 538.401 774.618 541.252 776.853C543.473 778.574 545.829 780.106 548.297 781.431C553.914 783.93 560.248 784.179 566.036 782.13C571.825 780.08 576.644 775.882 579.532 770.373C580.029 769.317 580.477 768.184 580.951 766.985C582.456 763.175 584.162 758.858 588.057 756.15C592.136 753.316 597.16 753.358 600.83 753.389L638.736 753.717L638.678 760.628L600.773 760.3C597.176 760.27 594.027 760.367 591.877 761.86C589.682 763.386 588.496 766.388 587.24 769.567C586.747 770.816 586.236 772.107 585.644 773.365C581.973 780.535 575.755 786.005 568.261 788.659C560.767 791.312 552.562 790.948 545.322 787.642C542.513 786.152 539.832 784.423 537.307 782.474C534.843 780.531 532.185 778.858 529.377 777.484C518.903 772.866 506.284 778 497.544 783.119C495.001 784.609 492.423 786.249 489.929 787.835C481.904 792.941 473.606 798.219 463.979 800.264C462.761 800.522 461.53 800.707 460.29 800.818Z" fill="#F55F44"/>
<path id="Vector_70" opacity="0.2" d="M715.193 683.343C715.193 683.343 762.711 687.489 769.812 758.219" stroke="black" stroke-miterlimit="10"/>
<path id="Vector_71" opacity="0.2" d="M639.989 774.867C639.989 774.867 617.508 717.417 690.916 678.095" stroke="black" stroke-miterlimit="10"/>
<path id="Vector_72" opacity="0.2" d="M658.177 760.343C658.177 760.343 647.816 730.548 670.488 711.655" stroke="black" stroke-miterlimit="10"/>
<path id="Vector_73" opacity="0.2" d="M701.362 708.874C701.362 708.874 721.057 722.96 714.818 763.172" stroke="black" stroke-miterlimit="10"/>
<path id="Vector_74" opacity="0.2" d="M737.765 668.919C737.765 668.919 770.174 683.843 782.58 737.244" stroke="black" stroke-miterlimit="10"/>
<path id="Vector_75" opacity="0.2" d="M690.489 673.177C690.489 673.177 709.274 665.538 722.754 675.228" stroke="black" stroke-miterlimit="10"/>
<path id="Vector_76" opacity="0.2" d="M676.88 785.422C676.88 785.422 695.072 804.6 759.854 777.95" stroke="black" stroke-miterlimit="10"/>
<path id="Vector_77" opacity="0.2" d="M655.217 681.31C655.217 681.31 630.702 701.36 631.046 738.997" stroke="black" stroke-miterlimit="10"/>
<path id="Vector_78" opacity="0.2" d="M652.531 773.738C652.531 773.738 647.765 786.062 660.281 795.838" stroke="black" stroke-miterlimit="10"/>
<path id="Vector_79" opacity="0.2" d="M767.375 786.193C767.375 786.193 760.737 810.581 746.974 808.847" stroke="black" stroke-miterlimit="10"/>
<path id="Vector_80" opacity="0.2" d="M726.761 721.455C726.761 721.455 736.467 732.476 731.871 746.767" stroke="black" stroke-miterlimit="10"/>
<path id="Vector_81" opacity="0.2" d="M678.605 726.783C678.605 726.783 671.286 743.303 677.218 755.655" stroke="black" stroke-miterlimit="10"/>
<path id="Vector_82" opacity="0.2" d="M689.218 725.828C689.218 725.828 697.591 743.907 691.69 754.351" stroke="black" stroke-miterlimit="10"/>
</g>
<path id="Vector_83" opacity="0.1" d="M352.5 599C423.469 599 481 590.046 481 579C481 567.954 423.469 559 352.5 559C281.531 559 224 567.954 224 579C224 590.046 281.531 599 352.5 599Z" fill="black"/>
<path id="Vector_84" opacity="0.1" d="M352.5 599C423.469 599 481 590.046 481 579C481 567.954 423.469 559 352.5 559C281.531 559 224 567.954 224 579C224 590.046 281.531 599 352.5 599Z" fill="black"/>
<path id="Bone" d="M111.92 733.745C107.848 724.42 114.827 714.02 124.999 714.253V714.253C126.594 714.29 128.171 714.601 129.661 715.172L150.157 723.027C152.634 723.976 155.319 724.252 157.938 723.825L205.337 716.1L245.691 704.95C248.71 704.116 251.392 702.357 253.362 699.921L277.506 670.05C279.774 667.245 283.216 665.649 286.823 665.732V665.732C293.047 665.875 298.056 670.893 298.188 677.118L298.406 687.364C298.458 689.81 299.107 692.207 300.298 694.344L301.051 695.696C306.694 705.828 299.196 718.257 287.602 717.991L271.349 717.617C270.17 717.59 268.993 717.702 267.84 717.951L205.661 731.367L160.646 741.141C156.61 742.017 153.114 744.519 150.982 748.057L144.579 758.681C141.801 763.291 136.767 766.059 131.387 765.935L130.214 765.908C122.19 765.724 115.732 759.255 115.562 751.23L115.421 744.585C115.38 742.626 114.955 740.695 114.171 738.9L111.92 733.745Z" fill="#E6E5E5"/>
</g>
<defs>
<linearGradient id="paint0_linear" x1="516.3" y1="248.664" x2="525.206" y2="231.124" gradientUnits="userSpaceOnUse">
<stop stop-color="white"/>
<stop offset="1"/>
</linearGradient>
<linearGradient id="paint1_linear" x1="190.331" y1="251.626" x2="181.425" y2="234.086" gradientUnits="userSpaceOnUse">
<stop stop-color="white"/>
<stop offset="1"/>
</linearGradient>
<linearGradient id="paint2_linear" x1="713.93" y1="837.1" x2="697.282" y2="652.246" gradientUnits="userSpaceOnUse">
<stop stop-color="#808080" stop-opacity="0.25"/>
<stop offset="0.53514" stop-color="#808080" stop-opacity="0.12"/>
<stop offset="1" stop-color="#808080" stop-opacity="0.1"/>
</linearGradient>
<linearGradient id="paint3_linear" x1="334001" y1="369904" x2="322836" y2="245936" gradientUnits="userSpaceOnUse">
<stop stop-color="#808080" stop-opacity="0.25"/>
<stop offset="0.53514" stop-color="#808080" stop-opacity="0.12"/>
<stop offset="1" stop-color="#808080" stop-opacity="0.1"/>
</linearGradient>
<clipPath id="clip0">
<rect width="797" height="832" fill="white"/>
</clipPath>
</defs>
</svg>
